<?xml version="1.0" standalone="no"?>
<!DOCTYPE svg PUBLIC "-//W3C//DTD SVG 20010904//EN"
 "http://www.w3.org/TR/2001/REC-SVG-20010904/DTD/svg10.dtd">
<svg version="1.0" xmlns="http://www.w3.org/2000/svg"
 width="260.000000pt" height="260.000000pt" viewBox="0 0 260.000000 260.000000"
 preserveAspectRatio="xMidYMid meet">
<metadata>
Created by potrace 1.14, written by Peter Selinger 2001-2017
</metadata>
<g transform="translate(0.000000,260.000000) scale(0.100000,-0.100000)"
fill="#000000" stroke="none">
<path d="M33 2585 l-33 -9 0 -1288 0 -1288 673 0 672 0 18 23 c9 12 28 36 41
53 20 24 27 50 36 129 9 86 14 103 38 128 15 16 43 36 62 44 33 14 34 16 15
29 -48 35 -66 56 -71 83 -6 28 -22 41 -77 61 -26 9 -52 49 -38 60 15 12 30 50
25 63 -3 8 6 21 20 31 15 9 26 22 26 29 0 7 14 18 30 25 17 8 28 17 25 22 -3
4 3 6 12 4 19 -5 100 62 89 73 -3 3 -14 -1 -23 -9 -10 -8 -34 -21 -53 -28 -19
-8 -44 -20 -55 -27 -26 -18 -52 -16 -59 3 -5 14 -10 12 -32 -12 -21 -24 -25
-25 -22 -9 2 13 -6 24 -25 33 -15 7 -27 18 -27 23 0 6 5 7 10 4 6 -3 13 1 16
9 3 9 14 16 24 16 10 0 33 7 51 15 l34 14 -50 0 c-46 0 -130 18 -95 20 12 1
12 3 2 10 -12 7 -11 14 2 39 19 36 16 78 -8 115 -11 16 -23 68 -31 139 -7 62
-18 126 -24 141 -16 40 -14 84 4 91 24 9 62 -10 113 -58 66 -61 90 -69 174
-56 79 12 165 56 203 103 14 18 29 37 33 42 15 18 59 119 81 182 20 61 20 123
-1 123 -5 0 -6 5 -3 10 10 17 23 11 28 -12 3 -17 5 -14 6 9 1 43 34 62 62 37
10 -9 16 -21 13 -26 -7 -11 32 -135 52 -162 8 -11 14 -28 14 -38 0 -35 19 -18
22 20 2 23 8 36 16 34 15 -3 16 24 2 33 -13 8 -4 43 17 66 10 13 12 32 7 81
-5 53 -3 67 11 81 19 20 25 20 46 4 29 -22 39 -55 39 -134 0 -43 5 -147 12
-230 14 -185 6 -230 -43 -240 -31 -6 -31 -6 -22 -52 4 -25 8 -102 8 -171 -1
-122 -1 -127 -37 -200 l-35 -75 13 -130 c16 -160 17 -268 3 -318 -6 -22 -41
-75 -83 -125 -70 -84 -126 -172 -141 -219 l-6 -23 380 0 381 0 0 1300 0 1300
-1154 0 c-1016 0 -1155 -2 -1160 -15 -7 -19 -26 -20 -26 -1 0 10 -22 13 -97
12 -54 -1 -113 -5 -130 -11z m214 -57 c-3 -8 -6 -5 -6 6 -1 11 2 17 5 13 3 -3
4 -12 1 -19z m998 -204 c9 -13 16 -14 32 -5 12 6 45 13 74 17 47 5 57 3 77
-16 13 -12 21 -27 19 -33 -4 -14 32 -49 43 -42 4 2 45 -16 90 -40 46 -25 86
-45 90 -45 4 0 15 -9 25 -20 10 -11 23 -20 30 -20 21 0 64 -44 64 -65 -1 -27
6 -53 14 -61 4 -4 7 -18 7 -31 0 -13 5 -23 11 -23 9 0 9 -4 0 -13 -10 -13
-134 -49 -214 -62 -21 -3 -71 -21 -110 -40 -40 -18 -94 -41 -120 -51 -54 -19
-62 -28 -59 -64 2 -19 -13 -42 -62 -93 -53 -56 -71 -68 -93 -66 -16 1 -44 -1
-64 -5 -29 -6 -48 -2 -90 18 -32 15 -77 26 -109 28 -47 3 -55 6 -53 22 1 11
-3 31 -9 45 -5 14 -12 85 -15 156 -3 72 -9 135 -15 142 -11 13 0 83 13 83 17
0 9 20 -8 21 -15 1 -14 2 2 6 28 7 61 45 57 66 -2 10 3 17 12 17 9 0 16 8 16
18 0 9 14 28 30 42 17 14 30 30 30 35 0 6 6 19 13 29 11 15 18 16 34 8 14 -8
30 -7 59 3 21 8 57 14 79 15 28 0 46 6 58 20 20 24 26 25 42 4z m621 -461 c-4
-16 -16 -35 -26 -44 -16 -14 -18 -24 -12 -60 8 -46 -15 -159 -31 -159 -5 0 -6
8 -2 18 21 50 21 77 -3 112 -24 35 -40 50 -56 50 -5 0 1 -11 14 -25 38 -40 40
-136 6 -211 -15 -32 -30 -61 -34 -64 -4 -3 -15 -17 -25 -32 -27 -42 -45 -36
-40 13 3 27 1 39 -6 34 -6 -3 -11 2 -11 12 -1 31 -40 -28 -40 -60 0 -64 -85
-97 -163 -63 -48 21 -96 68 -98 96 -3 58 3 80 30 109 31 33 71 42 71 16 0 -8
-4 -15 -9 -15 -5 0 -11 -6 -14 -13 -7 -19 62 -21 104 -2 19 8 61 30 94 49 56
32 60 37 66 77 4 24 3 54 -2 65 -7 20 -11 21 -56 12 -26 -6 -57 -16 -68 -23
-11 -7 -31 -16 -45 -20 -23 -7 -23 -6 6 18 33 28 150 87 172 87 6 0 12 4 12 8
0 5 18 14 41 21 36 11 43 10 61 -6 20 -18 20 -17 14 5 -7 20 -4 22 24 22 30 0
32 -2 26 -27z m-258 -135 c-2 -18 -13 -24 -60 -34 -32 -6 -58 -8 -58 -4 0 11
51 44 80 51 40 10 42 10 38 -13z m-248 -66 c0 -4 -22 -30 -50 -57 -34 -33 -50
-44 -50 -32 0 9 19 34 42 57 41 39 58 48 58 32z m227 -8 c-3 -3 -12 -4 -19 -1
-8 3 -5 6 6 6 11 1 17 -2 13 -5z m-70 -40 c-9 -9 -28 6 -21 18 4 6 10 6 17 -1
6 -6 8 -13 4 -17z m-227 -128 c-12 -12 -25 38 -14 56 5 8 10 3 16 -17 4 -16 3
-34 -2 -39z m-245 44 c4 -6 -12 -9 -42 -9 -47 2 -47 2 -13 9 19 4 38 8 42 9 4
0 10 -3 13 -9z m205 -29 c0 -6 -4 -13 -10 -16 -5 -3 -10 1 -10 9 0 9 5 16 10
16 6 0 10 -4 10 -9z m-590 -71 c0 -5 -8 -10 -17 -10 -15 0 -16 2 -3 10 19 12
20 12 20 0z m-100 -77 c0 -7 -7 -10 -15 -7 -9 4 -15 19 -15 38 l1 31 14 -25
c8 -14 14 -30 15 -37z m540 50 c0 -10 -26 -30 -47 -35 -19 -5 -20 -3 -11 17 6
14 19 23 34 23 13 0 24 -3 24 -5z m-590 -32 c0 -5 7 -17 16 -25 12 -13 12 -16
2 -16 -8 0 -19 5 -26 12 -15 15 -16 38 -2 38 6 0 10 -4 10 -9z m75 -11 c3 -5
1 -10 -4 -10 -6 0 -11 5 -11 10 0 6 2 10 4 10 3 0 8 -4 11 -10z m16 -50 c10
-6 19 -20 19 -32 0 -20 -1 -19 -25 6 -35 37 -33 46 6 26z m1599 -80 c0 -13
-38 -32 -51 -25 -14 10 9 35 32 35 11 0 19 -4 19 -10z m-1225 -300 c3 -5 1
-10 -4 -10 -6 0 -11 -8 -11 -17 -1 -17 -2 -16 -15 1 -8 10 -12 23 -9 27 7 12
31 11 39 -1z"/>
<path d="M1730 1840 c0 -5 5 -10 10 -10 6 0 10 5 10 10 0 6 -4 10 -10 10 -5 0
-10 -4 -10 -10z"/>
<path d="M1698 1783 c7 -3 16 -2 19 1 4 3 -2 6 -13 5 -11 0 -14 -3 -6 -6z"/>
<path d="M2132 1810 c0 -14 2 -19 5 -12 2 6 2 18 0 25 -3 6 -5 1 -5 -13z"/>
<path d="M2101 1524 c0 -11 3 -14 6 -6 3 7 2 16 -1 19 -3 4 -6 -2 -5 -13z"/>
<path d="M1718 1208 c5 -5 16 -8 23 -6 8 3 3 7 -10 11 -17 4 -21 3 -13 -5z"/>
<path d="M1797 1170 c11 -14 23 -34 26 -45 5 -19 5 -19 6 1 0 11 -11 31 -26
45 l-28 24 22 -25z"/>
<path d="M1830 1090 c0 -5 5 -10 11 -10 5 0 7 5 4 10 -3 6 -8 10 -11 10 -2 0
-4 -4 -4 -10z"/>
<path d="M1706 1025 c-21 -16 -15 -45 9 -45 12 0 35 36 35 56 0 9 -26 3 -44
-11z"/>
</g>
</svg>
